<svg width="13" height="13" viewBox="0 0 13 13" fill="none" xmlns="http://www.w3.org/2000/svg">
<path d="M12.0244 6.31183C11.624 6.22329 8.85424 5.59945 8.19212 5.04203C8.18057 5.03197 8.06124 4.9394 7.9419 4.81262C7.82834 4.69188 7.7244 4.55504 7.7167 4.54296C7.19316 3.86077 6.60418 1.05955 6.50217 0.5625H6.46751C6.3655 1.05955 5.77651 3.86077 5.25297 4.54296C5.24335 4.55504 5.14134 4.69188 5.02778 4.81262C4.90844 4.9394 4.78911 5.03197 4.77756 5.04203C4.11351 5.59945 1.34567 6.22329 0.945312 6.31183V6.33397C1.34567 6.42252 4.11543 7.04635 4.77756 7.60377C4.78911 7.61384 4.90844 7.7064 5.02778 7.83318C5.14134 7.95392 5.24527 8.09076 5.25297 8.10284C5.81309 8.83131 6.44634 11.9787 6.48099 12.1497H6.48869C6.52334 11.9787 7.15659 8.83131 7.7167 8.10284C7.72633 8.09076 7.82834 7.95392 7.9419 7.83318C8.06124 7.7064 8.18057 7.61384 8.19212 7.60377C8.85617 7.04635 11.624 6.42252 12.0244 6.33397V6.31183Z" fill="#9747FF"/>
</svg>
